<svg xmlns="http://www.w3.org/2000/svg" viewBox="0 0 32 32">
  <path
    d="M13.84376,7.53645l-1.28749-1.0729A2,2,0,0,0,11.27591,6H4A2,2,0,0,0,2,8V24a2,2,0,0,0,2,2H28a2,2,0,0,0,2-2V10a2,2,0,0,0-2-2H15.12412A2,2,0,0,1,13.84376,7.53645Z"
    style="fill: #45403d" />
  <g>
    <path
      d="M18.4,12A2.22756,2.22756,0,0,0,16,14V26a2.22756,2.22756,0,0,0,2.4,2H29.6A2.22756,2.22756,0,0,0,32,26V14a2.22756,2.22756,0,0,0-2.4-2Z"
      style="fill: #665c54;fill-rule: evenodd" />
    <g>
      <path d="M18,16.00028,24.00042,26,30,16.04841v-.04813H27.66675l-3.63169,6.02547-3.61563-6.02547Z"
        style="fill: #a9b665;fill-rule: evenodd" />
      <path d="M20.41835,16l3.61558,6.02646L27.66656,16h-2.188l-1.4299,2.3721L22.6246,16Z"
        style="fill: #45403d;fill-rule: evenodd" />
    </g>
  </g>
</svg>