<svg xmlns="http://www.w3.org/2000/svg" viewBox="0 0 210 210"><g fill="none" fill-rule="evenodd" transform="matrix(.9 0 0 .9 10.5 10.5)"><rect width="20" height="10" x="165" y="40" fill="#7daea3" rx="5"/><rect width="60" height="10" x="15" y="200" fill="#ea6962" rx="5"/><rect width="40" height="10" x="135" y="120" fill="#d3869b" rx="5"/><rect width="50" height="10" x="75" y="120" fill="#ea6962" rx="5"/><rect width="50" height="10" x="15" y="120" fill="#7daea3" rx="5"/><rect width="60" height="10" x="15" y="160" fill="#d3869b" rx="5"/><rect width="60" height="10" x="15" y="80" fill="#d3869b" rx="5"/><rect width="110" height="10" x="65" y="20" fill="#e3ae5a" rx="5"/><rect width="40" height="10" x="15" y="20" fill="#ea6962" rx="5"/><rect width="20" height="10" x="55" y="180" fill="#e3ae5a" rx="5"/><rect width="20" height="10" x="55" y="60" fill="#7daea3" rx="5"/><rect width="30" height="10" x="15" y="180" fill="#7daea3" rx="5"/><rect width="30" height="10" x="15" y="60" fill="#e3ae5a" rx="5"/><rect width="90" height="10" x="95" y="100" fill="#7daea3" rx="5"/><rect width="40" height="10" x="45" y="100" fill="#e3ae5a" rx="5"/><rect width="20" height="10" x="15" y="100" fill="#ea6962" rx="5"/><rect width="50" height="10" x="105" y="40" fill="#d3869b" rx="5"/><rect width="80" height="10" x="15" y="40" fill="#7daea3" rx="5"/><rect width="100" height="10" x="45" y="140" fill="#e3ae5a" rx="5"/><rect width="20" height="10" x="15" y="140" fill="#d3869b" rx="5"/><rect width="60" height="10" x="135" y="60" fill="#ea6962" rx="5"/><rect width="60" height="10" x="135" y="80" fill="#e3ae5a" rx="5"/><rect width="130" height="10" x="15" fill="#7daea3" rx="5"/></g></svg>
